{"accessors": [{"bufferView": 2, "componentType": 5126, "count": 876, "max": [1.00395929813385, 0.21906474232673645, 0.2544400095939636], "min": [-0.10279130190610886, -0.10279133915901184, 0.16879332065582275], "type": "VEC3"}, {"bufferView": 2, "byteOffset": 10512, "componentType": 5126, "count": 876, "max": [1.0, 1.0, 1.0], "min": [-1.0, -1.0, -1.0], "type": "VEC3"}, {"bufferView": 1, "componentType": 5126, "count": 876, "max": [1.0, 0.5233535170555115], "min": [0.0, 0.01000000536441803], "type": "VEC2"}, {"bufferView": 0, "componentType": 5125, "count": 1278, "type": "SCALAR"}, {"bufferView": 2, "byteOffset": 21024, "componentType": 5126, "count": 304, "max": [0.04202236607670784, 0.04202237352728844, 0.23386900126934052], "min": [-0.04202236607670784, -0.15682370960712433, -0.17705987393856049], "type": "VEC3"}, {"bufferView": 2, "byteOffset": 24672, "componentType": 5126, "count": 304, "max": [1.0, 1.0, 1.0], "min": [-1.0, -1.0, -1.0], "type": "VEC3"}, {"bufferView": 1, "byteOffset": 7008, "componentType": 5126, "count": 304, "max": [1.0, 1.0], "min": [0.0, 0.14348462224006653], "type": "VEC2"}, {"bufferView": 0, "byteOffset": 5112, "componentType": 5125, "count": 438, "type": "SCALAR"}, {"bufferView": 2, "byteOffset": 28320, "componentType": 5126, "count": 470, "max": [0.07856780290603638, 0.1593269556760788, 0.09202440828084946], "min": [-0.08567860722541809, -0.21005724370479584, -0.09202440828084946], "type": "VEC3"}, {"bufferView": 2, "byteOffset": 33960, "componentType": 5126, "count": 470, "max": [0.9855436086654663, 0.9855437278747559, 1.0], "min": [-0.9855436682701111, -0.9855436682701111, -1.0], "type": "VEC3"}, {"bufferView": 1, "byteOffset": 9440, "componentType": 5126, "count": 470, "max": [1.0, 1.0], "min": [0.0, 0.0], "type": "VEC2"}, {"bufferView": 0, "byteOffset": 6864, "componentType": 5125, "count": 708, "type": "SCALAR"}, {"bufferView": 2, "byteOffset": 39600, "componentType": 5126, "count": 11721, "max": [3.4562535285949707, 0.6823480725288391, 0.1890893280506134], "min": [-1.2591513395309448, -0.5093780755996704, -0.23924556374549866], "type": "VEC3"}, {"bufferView": 2, "byteOffset": 180252, "componentType": 5126, "count": 11721, "max": [1.0, 1.0, 1.0], "min": [-1.0, -1.0, -1.0], "type": "VEC3"}, {"bufferView": 1, "byteOffset": 13200, "componentType": 5126, "count": 11721, "max": [1.000000238418579, 1.0652681589126587], "min": [0.0, -0.0026379001792520285], "type": "VEC2"}, {"bufferView": 0, "byteOffset": 9696, "componentType": 5125, "count": 17250, "type": "SCALAR"}, {"bufferView": 2, "byteOffset": 320904, "componentType": 5126, "count": 3162, "max": [1.5905462503433228, 0.6930216550827026, 0.17492683231830597], "min": [-1.4209011793136597, -0.715674638748169, -0.22063371539115906], "type": "VEC3"}, {"bufferView": 2, "byteOffset": 358848, "componentType": 5126, "count": 3162, "max": [1.0, 1.0, 1.0], "min": [-0.9992823004722595, -1.0, -1.0], "type": "VEC3"}, {"bufferView": 1, "byteOffset": 106968, "componentType": 5126, "count": 3162, "max": [1.0006730556488037, 1.006535291671753], "min": [0.0, 0.0], "type": "VEC2"}, {"bufferView": 0, "byteOffset": 78696, "componentType": 5125, "count": 4737, "type": "SCALAR"}, {"bufferView": 2, "byteOffset": 396792, "componentType": 5126, "count": 202, "max": [-1.320082664489746, 0.4595499038696289, 0.17222356796264648], "min": [-1.5490543842315674, -0.7313398122787476, -0.17236492037773132], "type": "VEC3"}, {"bufferView": 2, "byteOffset": 399216, "componentType": 5126, "count": 202, "max": [0.9963095188140869, 0.9963089823722839, 1.0], "min": [-0.998788595199585, -0.996375560760498, -0.9999995231628418], "type": "VEC3"}, {"bufferView": 1, "byteOffset": 132264, "componentType": 5126, "count": 202, "max": [0.5680879950523376, 0.7420341372489929], "min": [0.4208746552467346, 0.5076082348823547], "type": "VEC2"}, {"bufferView": 0, "byteOffset": 97644, "componentType": 5125, "count": 294, "type": "SCALAR"}, {"bufferView": 2, "byteOffset": 401640, "componentType": 5126, "count": 3627, "max": [1.1056562662124634, 0.5097408890724182, 0.15414796769618988], "min": [-2.0777947902679443, -0.21025709807872772, -0.15414801239967346], "type": "VEC3"}, {"bufferView": 2, "byteOffset": 445164, "componentType": 5126, "count": 3627, "max": [1.0, 1.0, 1.0], "min": [-1.0, -1.0, -1.0], "type": "VEC3"}, {"bufferView": 1, "byteOffset": 133880, "componentType": 5126, "count": 3627, "max": [1.0, 1.264045238494873], "min": [0.0, 0.0], "type": "VEC2"}, {"bufferView": 0, "byteOffset": 98820, "componentType": 5125, "count": 5262, "type": "SCALAR"}, {"bufferView": 2, "byteOffset": 488688, "componentType": 5126, "count": 2493, "max": [1.1343621015548706, 0.07522871345281601, 0.4223285913467407], "min": [-0.9343109130859375, -0.35589778423309326, -0.15509402751922607], "type": "VEC3"}, {"bufferView": 2, "byteOffset": 518604, "componentType": 5126, "count": 2493, "max": [1.0, 1.0, 1.0], "min": [-1.0, -1.0, -1.0], "type": "VEC3"}, {"bufferView": 1, "byteOffset": 162896, "componentType": 5126, "count": 2493, "max": [1.032048225402832, 1.0000001192092896], "min": [0.0, 0.01000000536441803], "type": "VEC2"}, {"bufferView": 0, "byteOffset": 119868, "componentType": 5125, "count": 3630, "type": "SCALAR"}, {"bufferView": 2, "byteOffset": 548520, "componentType": 5126, "count": 542, "max": [2.602590799331665, 0.0703507661819458, 0.0703507512807846], "min": [1.1343621015548706, -0.07035072147846222, -0.07035073637962341], "type": "VEC3"}, {"bufferView": 2, "byteOffset": 555024, "componentType": 5126, "count": 542, "max": [1.0, 0.9238799214363098, 0.9238805174827576], "min": [-1.0, -0.923879861831665, -0.9238805174827576], "type": "VEC3"}, {"bufferView": 1, "byteOffset": 182840, "componentType": 5126, "count": 542, "max": [1.0, 1.0], "min": [0.0, 1.0], "type": "VEC2"}, {"bufferView": 0, "byteOffset": 134388, "componentType": 5125, "count": 834, "type": "SCALAR"}, {"bufferView": 2, "byteOffset": 561528, "componentType": 5126, "count": 1672, "max": [1.1726311445236206, 0.15775930881500244, 0.3643852472305298], "min": [-1.172649621963501, -0.17229795455932617, -0.175368994474411], "type": "VEC3"}, {"bufferView": 2, "byteOffset": 581592, "componentType": 5126, "count": 1672, "max": [1.0, 1.0, 1.0], "min": [-1.0, -1.0, -1.0], "type": "VEC3"}, {"bufferView": 1, "byteOffset": 187176, "componentType": 5126, "count": 1672, "max": [1.0, 1.0], "min": [0.0, 0.0], "type": "VEC2"}, {"bufferView": 0, "byteOffset": 137724, "componentType": 5125, "count": 2406, "type": "SCALAR"}, {"bufferView": 2, "byteOffset": 601656, "componentType": 5126, "count": 130, "max": [0.34038543701171875, 0.21598254144191742, 0.10199248045682907], "min": [-0.8479820489883423, 0.10562478750944138, -0.10551375895738602], "type": "VEC3"}, {"bufferView": 2, "byteOffset": 603216, "componentType": 5126, "count": 130, "max": [1.0, 1.0, 0.9782640933990479], "min": [-1.0, -0.8110535144805908, -0.9782640933990479], "type": "VEC3"}, {"bufferView": 1, "byteOffset": 200552, "componentType": 5126, "count": 130, "max": [0.8712686896324158, 1.0], "min": [0.125, 0.0], "type": "VEC2"}, {"bufferView": 0, "byteOffset": 147348, "componentType": 5125, "count": 192, "type": "SCALAR"}, {"bufferView": 2, "byteOffset": 604776, "componentType": 5126, "count": 4320, "max": [0.47890445590019226, 0.2553159296512604, 0.2553160488605499], "min": [-0.20478615164756775, -0.2553160488605499, -0.25531598925590515], "type": "VEC3"}, {"bufferView": 2, "byteOffset": 656616, "componentType": 5126, "count": 4320, "max": [1.0, 0.9238818883895874, 0.9238833785057068], "min": [-1.0, -0.9238823056221008, -0.9238821268081665], "type": "VEC3"}, {"bufferView": 1, "byteOffset": 201592, "componentType": 5126, "count": 4320, "max": [1.0, 1.0], "min": [0.0, 0.01000000536441803], "type": "VEC2"}, {"bufferView": 0, "byteOffset": 148116, "componentType": 5125, "count": 6336, "type": "SCALAR"}, {"bufferView": 2, "byteOffset": 708456, "componentType": 5126, "count": 1871, "max": [1.8730454444885254, 0.08481805771589279, 0.22395752370357513], "min": [-0.5956963896751404, -0.5616698265075684, -0.22395755350589752], "type": "VEC3"}, {"bufferView": 2, "byteOffset": 730908, "componentType": 5126, "count": 1871, "max": [1.0, 1.0, 1.0], "min": [-1.0, -1.0, -1.0], "type": "VEC3"}, {"bufferView": 1, "byteOffset": 236152, "componentType": 5126, "count": 1871, "max": [1.0, 1.0], "min": [0.0, 0.010000020265579224], "type": "VEC2"}, {"bufferView": 0, "byteOffset": 173460, "componentType": 5125, "count": 2781, "type": "SCALAR"}, {"bufferView": 2, "byteOffset": 753360, "componentType": 5126, "count": 608, "max": [0.48164892196655273, -0.25177091360092163, 0.13503797352313995], "min": [-0.4709000587463379, -1.201863169670105, -0.13503797352313995], "type": "VEC3"}, {"bufferView": 2, "byteOffset": 760656, "componentType": 5126, "count": 608, "max": [1.0, 1.0, 1.0], "min": [-1.0, -1.0, -1.0], "type": "VEC3"}, {"bufferView": 1, "byteOffset": 251120, "componentType": 5126, "count": 608, "max": [0.875, 1.0], "min": [0.125, 0.0], "type": "VEC2"}, {"bufferView": 0, "byteOffset": 184584, "componentType": 5125, "count": 852, "type": "SCALAR"}, {"bufferView": 2, "byteOffset": 767952, "componentType": 5126, "count": 11574, "max": [1.9046541452407837, 0.5341988801956177, 0.26048141717910767], "min": [-0.5898759365081787, -0.24538740515708923, -0.26048141717910767], "type": "VEC3"}, {"bufferView": 2, "byteOffset": 906840, "componentType": 5126, "count": 11574, "max": [1.0, 1.0, 1.0], "min": [-1.0, -1.0, -1.0], "type": "VEC3"}, {"bufferView": 1, "byteOffset": 255984, "componentType": 5126, "count": 11574, "max": [1.0, 1.0], "min": [0.0, 0.0], "type": "VEC2"}, {"bufferView": 0, "byteOffset": 187992, "componentType": 5125, "count": 17049, "type": "SCALAR"}, {"bufferView": 2, "byteOffset": 1045728, "componentType": 5126, "count": 90, "max": [1.432138442993164, 0.9999997615814209, 0.7424513697624207], "min": [-0.5237975120544434, -4.6711883544921875, -0.7424518465995789], "type": "VEC3"}, {"bufferView": 2, "byteOffset": 1046808, "componentType": 5126, "count": 90, "max": [0.999991238117218, 1.0, 1.0], "min": [-0.9999929070472717, -0.9585079550743103, -1.0], "type": "VEC3"}, {"bufferView": 1, "byteOffset": 348576, "componentType": 5126, "count": 90, "max": [0.875, 1.0], "min": [0.125, 0.0], "type": "VEC2"}, {"bufferView": 0, "byteOffset": 256188, "componentType": 5125, "count": 132, "type": "SCALAR"}, {"bufferView": 2, "byteOffset": 1047888, "componentType": 5126, "count": 376, "max": [0.05674999952316284, 0.10978365689516068, 0.05674999952316284], "min": [-0.05674999952316284, -0.2772163152694702, -0.05674999952316284], "type": "VEC3"}, {"bufferView": 2, "byteOffset": 1052400, "componentType": 5126, "count": 376, "max": [0.923879861831665, 1.0, 0.9238798022270203], "min": [-0.9238797426223755, -1.0, -0.9238796234130859], "type": "VEC3"}, {"bufferView": 1, "byteOffset": 349296, "componentType": 5126, "count": 376, "max": [1.0, 1.0], "min": [0.0, 0.01000000536441803], "type": "VEC2"}, {"bufferView": 0, "byteOffset": 256716, "componentType": 5125, "count": 576, "type": "SCALAR"}, {"bufferView": 2, "byteOffset": 1056912, "componentType": 5126, "count": 219, "max": [0.03949999809265137, 0.2772163152694702, 0.03949999809265137], "min": [-0.03949999809265137, -0.2772163152694702, -0.03949999809265137], "type": "VEC3"}, {"bufferView": 2, "byteOffset": 1059540, "componentType": 5126, "count": 219, "max": [0.9236512780189514, 1.0, 0.9236511588096619], "min": [-0.9236512780189514, -1.0, -0.9236512780189514], "type": "VEC3"}, {"bufferView": 1, "byteOffset": 352304, "componentType": 5126, "count": 219, "max": [1.0, 1.0], "min": [0.0, 0.031583428382873535], "type": "VEC2"}, {"bufferView": 0, "byteOffset": 259020, "componentType": 5125, "count": 336, "type": "SCALAR"}, {"bufferView": 2, "byteOffset": 1062168, "componentType": 5126, "count": 413, "max": [0.05674999952316284, 0.19349999725818634, 0.05674999952316284], "min": [-0.05674999952316284, -0.19349999725818634, -0.05674999952316284], "type": "VEC3"}, {"bufferView": 2, "byteOffset": 1067124, "componentType": 5126, "count": 413, "max": [0.9238797426223755, 1.0, 0.9238796234130859], "min": [-0.9238797426223755, -1.0, -0.9238796234130859], "type": "VEC3"}, {"bufferView": 1, "byteOffset": 354056, "componentType": 5126, "count": 413, "max": [1.0, 1.0], "min": [0.0, 0.01000000536441803], "type": "VEC2"}, {"bufferView": 0, "byteOffset": 260364, "componentType": 5125, "count": 648, "type": "SCALAR"}, {"bufferView": 2, "byteOffset": 1072080, "componentType": 5126, "count": 80, "max": [0.026649996638298035, -0.18498075008392334, 0.026649996638298035], "min": [-0.026649996638298035, -0.19349999725818634, -0.026649996638298035], "type": "VEC3"}, {"bufferView": 2, "byteOffset": 1073040, "componentType": 5126, "count": 80, "max": [0.8535532355308533, -0.3826841711997986, 0.8535528779029846], "min": [-0.8535532355308533, -1.0, -0.8535528779029846], "type": "VEC3"}, {"bufferView": 1, "byteOffset": 357360, "componentType": 5126, "count": 80, "max": [0.9684165716171265, 0.4684164524078369], "min": [0.5315834283828735, 0.031583428382873535], "type": "VEC2"}, {"bufferView": 0, "byteOffset": 262956, "componentType": 5125, "count": 120, "type": "SCALAR"}, {"bufferView": 2, "byteOffset": 1074000, "componentType": 5126, "count": 842, "max": [0.8804539442062378, 1.0638819932937622, 0.14443789422512054], "min": [-0.5593427419662476, -0.8928161859512329, -0.14443789422512054], "type": "VEC3"}, {"bufferView": 2, "byteOffset": 1084104, "componentType": 5126, "count": 842, "max": [1.0, 1.0, 1.0], "min": [-1.0, -1.0, -1.0], "type": "VEC3"}, {"bufferView": 1, "byteOffset": 358000, "componentType": 5126, "count": 842, "max": [0.6250000596046448, 1.0353124141693115], "min": [0.0, 0.0], "type": "VEC2"}, {"bufferView": 0, "byteOffset": 263436, "componentType": 5125, "count": 1152, "type": "SCALAR"}, {"bufferView": 2, "byteOffset": 1094208, "componentType": 5126, "count": 930, "max": [0.8893563151359558, 1.0041489601135254, 0.16561336815357208], "min": [-0.6046055555343628, -0.9331696033477783, -0.16561336815357208], "type": "VEC3"}, {"bufferView": 2, "byteOffset": 1105368, "componentType": 5126, "count": 930, "max": [1.0, 1.0, 1.0], "min": [-1.0, -1.0, -1.0], "type": "VEC3"}, {"bufferView": 1, "byteOffset": 364736, "componentType": 5126, "count": 930, "max": [1.0, 1.0], "min": [0.0, 0.0], "type": "VEC2"}, {"bufferView": 0, "byteOffset": 268044, "componentType": 5125, "count": 1311, "type": "SCALAR"}, {"bufferView": 2, "byteOffset": 1116528, "componentType": 5126, "count": 828, "max": [0.8804539442062378, 1.0638819932937622, 0.14443789422512054], "min": [-0.5593427419662476, -0.8928161859512329, -0.14443789422512054], "type": "VEC3"}, {"bufferView": 2, "byteOffset": 1126464, "componentType": 5126, "count": 828, "max": [1.0, 1.0, 1.0], "min": [-1.0, -1.0, -1.0], "type": "VEC3"}, {"bufferView": 1, "byteOffset": 372176, "componentType": 5126, "count": 828, "max": [0.6250000596046448, 1.0353124141693115], "min": [0.0, 0.0], "type": "VEC2"}, {"bufferView": 0, "byteOffset": 273288, "componentType": 5125, "count": 1134, "type": "SCALAR"}, {"bufferView": 2, "byteOffset": 1136400, "componentType": 5126, "count": 716, "max": [0.8893563151359558, 0.9353572726249695, 0.16561336815357208], "min": [-0.6046055555343628, -0.9331696033477783, -0.16561336815357208], "type": "VEC3"}, {"bufferView": 2, "byteOffset": 1144992, "componentType": 5126, "count": 716, "max": [1.0, 1.0, 1.0], "min": [-1.0, -1.0, -1.0], "type": "VEC3"}, {"bufferView": 1, "byteOffset": 378800, "componentType": 5126, "count": 716, "max": [0.6203408241271973, 0.820457935333252], "min": [0.0, 0.0], "type": "VEC2"}, {"bufferView": 0, "byteOffset": 277824, "componentType": 5125, "count": 1011, "type": "SCALAR"}, {"bufferView": 2, "byteOffset": 1153584, "componentType": 5126, "count": 1144, "max": [-0.06600669026374817, 1.0447428226470947, 0.10337135940790176], "min": [-0.494411826133728, 0.7398974299430847, -0.10337135940790176], "type": "VEC3"}, {"bufferView": 2, "byteOffset": 1167312, "componentType": 5126, "count": 1144, "max": [1.0, 0.923880398273468, 1.0], "min": [-1.0, -0.923880398273468, -1.0], "type": "VEC3"}, {"bufferView": 1, "byteOffset": 384528, "componentType": 5126, "count": 1144, "max": [1.0, 1.0], "min": [0.0, 0.01000000536441803], "type": "VEC2"}, {"bufferView": 0, "byteOffset": 281868, "componentType": 5125, "count": 1746, "type": "SCALAR"}, {"bufferView": 2, "byteOffset": 1181040, "componentType": 5126, "count": 645, "max": [0.07701504230499268, 1.027492880821228, 0.08461538702249527], "min": [-0.47741758823394775, 0.8349928855895996, -0.08461549133062363], "type": "VEC3"}, {"bufferView": 2, "byteOffset": 1188780, "componentType": 5126, "count": 645, "max": [1.0, 0.9236515760421753, 0.9236513376235962], "min": [-1.0, -0.923650860786438, -0.9236514568328857], "type": "VEC3"}, {"bufferView": 1, "byteOffset": 393680, "componentType": 5126, "count": 645, "max": [1.0, 1.0], "min": [0.0, 0.031583428382873535], "type": "VEC2"}, {"bufferView": 0, "byteOffset": 288852, "componentType": 5125, "count": 1008, "type": "SCALAR"}, {"bufferView": 2, "byteOffset": 1196520, "componentType": 5126, "count": 1948, "max": [1.5410174131393433, 0.06416328251361847, 0.0672353208065033], "min": [0.002206583507359028, -0.06716931611299515, -0.06478236615657806], "type": "VEC3"}, {"bufferView": 2, "byteOffset": 1219896, "componentType": 5126, "count": 1948, "max": [0.9914875030517578, 0.979773759841919, 0.9949386119842529], "min": [-0.9916754364967346, -0.9751654267311096, -0.9972963929176331], "type": "VEC3"}, {"bufferView": 1, "byteOffset": 398840, "componentType": 5126, "count": 1948, "max": [1.0, 1.0], "min": [0.0, 0.0], "type": "VEC2"}, {"bufferView": 0, "byteOffset": 292884, "componentType": 5125, "count": 2916, "type": "SCALAR"}], "asset": {"extras": {"author": "D_U (https://sketchfab.com/DU1701)", "license": "CC-BY-4.0 (http://creativecommons.org/licenses/by/4.0/)", "source": "https://sketchfab.com/3d-models/low-poly-ak-104-kochevnik-3c3b22c5d8994398b1cf57e5845cebdf", "title": "low-poly AK-104 Kochevnik"}, "generator": "Sketchfab-17.17.0", "version": "2.0"}, "bufferViews": [{"buffer": 0, "byteLength": 304548, "name": "floatBufferViews", "target": 34963}, {"buffer": 0, "byteLength": 414424, "byteOffset": 304548, "byteStride": 8, "name": "floatBufferViews", "target": 34962}, {"buffer": 0, "byteLength": 1243272, "byteOffset": 718972, "byteStride": 12, "name": "floatBufferViews", "target": 34962}], "buffers": [{"byteLength": 1962244, "uri": "buran.bin"}], "materials": [{"doubleSided": true, "name": "h-190", "pbrMetallicRoughness": {"baseColorFactor": [0.0109601, 0.0109601, 0.0109601, 1.0], "metallicFactor": 0.5, "roughnessFactor": 0.5}}, {"doubleSided": true, "name": "stell", "pbrMetallicRoughness": {"baseColorFactor": [0.203312, 0.203312, 0.203312, 1.0], "metallicFactor": 0.5, "roughnessFactor": 0.5}}, {"doubleSided": true, "name": "polymer", "pbrMetallicRoughness": {"baseColorFactor": [0.0202885, 0.0202885, 0.0202886, 1.0], "metallicFactor": 0.0, "roughnessFactor": 0.7}}, {"doubleSided": true, "name": "coyote", "pbrMetallicRoughness": {"baseColorFactor": [0.745404, 0.584078, 0.40724, 1.0], "metallicFactor": 0.5, "roughnessFactor": 0.5}}, {"doubleSided": true, "name": "copper", "pbrMetallicRoughness": {"baseColorFactor": [0.47932, 0.171441, 0.0331048, 1.0], "roughnessFactor": 0.3}}], "meshes": [{"name": "Object_0", "primitives": [{"attributes": {"NORMAL": 1, "POSITION": 0, "TEXCOORD_0": 2}, "indices": 3, "material": 0, "mode": 4}]}, {"name": "Object_1", "primitives": [{"attributes": {"NORMAL": 5, "POSITION": 4, "TEXCOORD_0": 6}, "indices": 7, "material": 1, "mode": 4}]}, {"name": "Object_2", "primitives": [{"attributes": {"NORMAL": 9, "POSITION": 8, "TEXCOORD_0": 10}, "indices": 11, "material": 0, "mode": 4}]}, {"name": "Object_3", "primitives": [{"attributes": {"NORMAL": 13, "POSITION": 12, "TEXCOORD_0": 14}, "indices": 15, "material": 0, "mode": 4}]}, {"name": "Object_4", "primitives": [{"attributes": {"NORMAL": 17, "POSITION": 16, "TEXCOORD_0": 18}, "indices": 19, "material": 1, "mode": 4}]}, {"name": "Object_5", "primitives": [{"attributes": {"NORMAL": 21, "POSITION": 20, "TEXCOORD_0": 22}, "indices": 23, "material": 2, "mode": 4}]}, {"name": "Object_6", "primitives": [{"attributes": {"NORMAL": 25, "POSITION": 24, "TEXCOORD_0": 26}, "indices": 27, "material": 0, "mode": 4}]}, {"name": "Object_7", "primitives": [{"attributes": {"NORMAL": 29, "POSITION": 28, "TEXCOORD_0": 30}, "indices": 31, "material": 0, "mode": 4}]}, {"name": "Object_8", "primitives": [{"attributes": {"NORMAL": 33, "POSITION": 32, "TEXCOORD_0": 34}, "indices": 35, "material": 1, "mode": 4}]}, {"name": "Object_9", "primitives": [{"attributes": {"NORMAL": 37, "POSITION": 36, "TEXCOORD_0": 38}, "indices": 39, "material": 0, "mode": 4}]}, {"name": "Object_10", "primitives": [{"attributes": {"NORMAL": 41, "POSITION": 40, "TEXCOORD_0": 42}, "indices": 43, "material": 2, "mode": 4}]}, {"name": "Object_11", "primitives": [{"attributes": {"NORMAL": 45, "POSITION": 44, "TEXCOORD_0": 46}, "indices": 47, "material": 0, "mode": 4}]}, {"name": "Object_12", "primitives": [{"attributes": {"NORMAL": 49, "POSITION": 48, "TEXCOORD_0": 50}, "indices": 51, "material": 0, "mode": 4}]}, {"name": "Object_13", "primitives": [{"attributes": {"NORMAL": 53, "POSITION": 52, "TEXCOORD_0": 54}, "indices": 55, "material": 2, "mode": 4}]}, {"name": "Object_14", "primitives": [{"attributes": {"NORMAL": 57, "POSITION": 56, "TEXCOORD_0": 58}, "indices": 59, "material": 3, "mode": 4}]}, {"name": "Object_15", "primitives": [{"attributes": {"NORMAL": 61, "POSITION": 60, "TEXCOORD_0": 62}, "indices": 63, "material": 0, "mode": 4}]}, {"name": "Object_16", "primitives": [{"attributes": {"NORMAL": 65, "POSITION": 64, "TEXCOORD_0": 66}, "indices": 67, "material": 1, "mode": 4}]}, {"name": "Object_17", "primitives": [{"attributes": {"NORMAL": 69, "POSITION": 68, "TEXCOORD_0": 70}, "indices": 71, "material": 4, "mode": 4}]}, {"name": "Object_18", "primitives": [{"attributes": {"NORMAL": 73, "POSITION": 72, "TEXCOORD_0": 74}, "indices": 75, "material": 1, "mode": 4}]}, {"name": "Object_19", "primitives": [{"attributes": {"NORMAL": 77, "POSITION": 76, "TEXCOORD_0": 78}, "indices": 79, "material": 4, "mode": 4}]}, {"name": "Object_20", "primitives": [{"attributes": {"NORMAL": 81, "POSITION": 80, "TEXCOORD_0": 82}, "indices": 83, "material": 2, "mode": 4}]}, {"name": "Object_21", "primitives": [{"attributes": {"NORMAL": 85, "POSITION": 84, "TEXCOORD_0": 86}, "indices": 87, "material": 0, "mode": 4}]}, {"name": "Object_22", "primitives": [{"attributes": {"NORMAL": 89, "POSITION": 88, "TEXCOORD_0": 90}, "indices": 91, "material": 2, "mode": 4}]}, {"name": "Object_23", "primitives": [{"attributes": {"NORMAL": 93, "POSITION": 92, "TEXCOORD_0": 94}, "indices": 95, "material": 0, "mode": 4}]}, {"name": "Object_24", "primitives": [{"attributes": {"NORMAL": 97, "POSITION": 96, "TEXCOORD_0": 98}, "indices": 99, "material": 1, "mode": 4}]}, {"name": "Object_25", "primitives": [{"attributes": {"NORMAL": 101, "POSITION": 100, "TEXCOORD_0": 102}, "indices": 103, "material": 4, "mode": 4}]}, {"name": "Object_26", "primitives": [{"attributes": {"NORMAL": 105, "POSITION": 104, "TEXCOORD_0": 106}, "indices": 107, "material": 1, "mode": 4}]}], "nodes": [{"children": [1], "matrix": [1.0, 0.0, 0.0, 0.0, 0.0, 2.220446049250313e-16, -1.0, 0.0, 0.0, 1.0, 2.220446049250313e-16, 0.0, 0.0, 0.0, 0.0, 1.0], "name": "Sketchfab_model"}, {"children": [2], "name": "root"}, {"children": [3, 6, 8, 12, 14, 17, 20, 22, 26, 37, 42], "matrix": [1.0, 0.0, 0.0, 0.0, 0.0, 2.220446049250313e-16, 1.0, 0.0, 0.0, -1.0, 2.220446049250313e-16, 0.0, 0.0, 0.0, 0.0, 1.0], "name": "GLTF_SceneRootNode"}, {"children": [4, 5], "matrix": [1.0, 0.0, 0.0, 0.0, 0.0, 1.0, 0.0, 0.0, 0.0, 0.0, 1.0, 0.0, -2.2394349575042725, 0.5892391800880432, -0.0008802638622000813, 1.0], "name": "kochevnik selector_0"}, {"mesh": 0, "name": "Object_4"}, {"mesh": 1, "name": "Object_5"}, {"children": [7], "matrix": [1.0, 0.0, 0.0, 0.0, 0.0, 1.0, 0.0, 0.0, 0.0, 0.0, 1.0, 0.0, -1.5124517679214478, 0.15336507558822632, -0.0008802636293694377, 1.0], "name": "kochevnik mag release_1"}, {"mesh": 2, "name": "Object_7"}, {"children": [9, 10, 11], "matrix": [1.0, 0.0, 0.0, 0.0, 0.0, 1.0, 0.0, 0.0, 0.0, 0.0, 1.0, 0.0, -1.5688213109970093, 0.4854384660720825, -0.0008802638622000813, 1.0], "name": "kochevnik receiver_3"}, {"mesh": 3, "name": "Object_9"}, {"mesh": 4, "name": "Object_10"}, {"mesh": 5, "name": "Object_11"}, {"children": [13], "matrix": [1.0, 0.0, 0.0, 0.0, 0.0, 1.0, 0.0, 0.0, 0.0, 0.0, 1.0, 0.0, 1.4200643301010132, 0.6667352318763733, -0.000880257342942059, 1.0], "name": "kochevnik barrel_4"}, {"mesh": 6, "name": "Object_13"}, {"children": [15, 16], "matrix": [1.0, 0.0, 0.0, 0.0, 0.0, 1.0, 0.0, 0.0, 0.0, 0.0, 1.0, 0.0, -0.5688130855560303, 0.9094958305358887, -0.0008802638622000813, 1.0], "name": "kochevnik bolt_5"}, {"mesh": 7, "name": "Object_15"}, {"mesh": 8, "name": "Object_16"}, {"children": [18, 19], "matrix": [1.0, 0.0, 0.0, 0.0, 0.0, 1.0, 0.0, 0.0, 0.0, 0.0, 1.0, 0.0, -1.6419010162353516, 0.8687369227409363, 0.0008803753880783916, 1.0], "name": "kochevnik dust cover_6"}, {"mesh": 9, "name": "Object_18"}, {"mesh": 10, "name": "Object_19"}, {"children": [21], "matrix": [1.0, 0.0, 0.0, 0.0, 0.0, 1.0, 0.0, 0.0, 0.0, 0.0, 1.0, 0.0, 2.498821258544922, 0.6667352914810181, -0.0008800257346592844, 1.0], "name": "kochevnik muzzle device_7"}, {"mesh": 11, "name": "Object_21"}, {"children": [23, 24, 25], "matrix": [1.0, 0.0, 0.0, 0.0, 0.0, 1.0, 0.0, 0.0, 0.0, 0.0, 1.0, 0.0, 0.31740057468414307, 0.651489794254303, -0.0008802309166640043, 1.0], "name": "kochevnik handguard_8"}, {"mesh": 12, "name": "Object_23"}, {"mesh": 13, "name": "Object_24"}, {"mesh": 14, "name": "Object_25"}, {"children": [27], "matrix": [0.057647231966257095, 0.0, 0.0, 0.0, 0.0, 0.057647231966257095, 0.0, 0.0, 0.0, 0.0, 0.057647231966257095, 0.0, 0.9299103021621704, 0.44985297322273254, -0.0008802288793958724, 1.0], "name": "kochevnik trigga_9"}, {"mesh": 15, "name": "Object_27"}, {"children": [29, 30], "matrix": [1.0, 0.0, 0.0, 0.0, 0.0, 1.0, 0.0, 0.0, 0.0, 0.0, 1.0, 0.0, 1.197975993156433, -0.24582141637802124, -0.0008803754462860525, 1.0], "name": "76239_10"}, {"mesh": 16, "name": "Object_29"}, {"mesh": 17, "name": "Object_30"}, {"children": [32, 33], "matrix": [1.0, 0.0, 0.0, 0.0, 0.0, 1.0, 0.0, 0.0, 0.0, 0.0, 1.0, 0.0, 1.374261736869812, -0.3295377492904663, -0.0008803677628748119, 1.0], "name": "76239 case_11"}, {"mesh": 18, "name": "Object_32"}, {"mesh": 19, "name": "Object_33"}, {"children": [35, 36], "matrix": [0.5101541267742418, 0.8600830000268642, 0.0, 0.0, -0.8600830000268642, 0.5101541267742418, 0.0, 0.0, 0.0, 0.0, 1.0, 0.0, -2.1732029914855957, -0.9094958305358887, -0.0008802803349681199, 1.0], "name": "akm 30rnd epmty mag (polymer)_12"}, {"mesh": 20, "name": "Object_35"}, {"mesh": 21, "name": "Object_36"}, {"children": [38, 39, 40, 41], "matrix": [0.9992080891277365, 0.039789378252209885, 0.0, 0.0, -0.039789378252209885, 0.9992080891277365, 0.0, 0.0, 0.0, 0.0, 1.0, 0.0, -0.8558077216148376, -0.3914083242416382, -0.0008802107186056674, 1.0], "name": "akm 30rnd mag (polymer)_13"}, {"mesh": 22, "name": "Object_38"}, {"mesh": 23, "name": "Object_39"}, {"mesh": 24, "name": "Object_40"}, {"mesh": 25, "name": "Object_41"}, {"children": [43], "matrix": [1.0, 0.0, 0.0, 0.0, 0.0, 1.0, 0.0, 0.0, 0.0, 0.0, 1.0, 0.0, -2.498821258544922, 0.9054384827613831, -0.0008802638622000813, 1.0], "name": "kochevnik recoil spring.001_14"}, {"mesh": 26, "name": "Object_43"}], "scene": 0, "scenes": [{"name": "Sketchfab_Scene", "nodes": [0]}]}